<svg width="24" height="24" viewBox="0 0 24 24" fill="none" xmlns="http://www.w3.org/2000/svg">
  <path d="M2 17C4.5 17 6 15.5 7.5 15.5C9 15.5 10.5 17 13 17C15.5 17 17 15.5 18.5 15.5C20 15.5 21.5 17 24 17" stroke="#0ea5e9" stroke-width="2.5" stroke-linecap="round" stroke-linejoin="round"/>
  <path d="M2 12C4.5 12 6 10.5 7.5 10.5C9 10.5 10.5 12 13 12C15.5 12 17 10.5 18.5 10.5C20 10.5 21.5 12 24 12" stroke="#0ea5e9" stroke-width="2.5" stroke-linecap="round" stroke-linejoin="round" opacity="0.6"/>
  <path d="M2 7C4.5 7 6 5.5 7.5 5.5C9 5.5 10.5 7 13 7C15.5 7 17 5.5 18.5 5.5C20 5.5 21.5 7 24 7" stroke="#0ea5e9" stroke-width="2.5" stroke-linecap="round" stroke-linejoin="round" opacity="0.3"/>
</svg>
